<svg xmlns="http://www.w3.org/2000/svg" viewBox="0 0 64 64"><circle cx="32" cy="32" r="32" fill="#6d899c"/><path d="M43.71 39.79a19.87 19.87 0 0 1-19.87-19.87 19.51 19.51 0 0 1 .63-5 1.27 1.27 0 0 0-1.93-1.38A19.86 19.86 0 1 0 50 41.09a1.27 1.27 0 0 0-1.38-1.93 19.51 19.51 0 0 1-4.91.63z" fill="#ffe500"/><path d="M48.67 39.16a19.51 19.51 0 0 1-5 .63 19.87 19.87 0 0 1-19.83-19.87 19.51 19.51 0 0 1 .63-5 1.26 1.26 0 0 0-.5-1.34 1.25 1.25 0 0 0-.86-.23 19.85 19.85 0 0 0 27.14 27.17 1.25 1.25 0 0 0-.23-.86 1.26 1.26 0 0 0-1.35-.5z" fill="#fffacf"/><path d="M43.71 39.79a19.87 19.87 0 0 1-19.87-19.87 19.51 19.51 0 0 1 .63-5 1.27 1.27 0 0 0-1.93-1.38A19.86 19.86 0 1 0 50 41.09a1.27 1.27 0 0 0-1.38-1.93 19.51 19.51 0 0 1-4.91.63z" fill="none" stroke="#191816" stroke-linecap="round" stroke-linejoin="round"/><path d="M40.28 21.39a.33.33 0 0 1 .22-.22L44.69 20a.33.33 0 0 0 .24-.31.31.31 0 0 0-.24-.3l-4.19-1.13a.3.3 0 0 1-.22-.22l-1.14-4.18a.32.32 0 0 0-.3-.23.31.31 0 0 0-.3.23L37.38 18a.32.32 0 0 1-.22.22L33 19.42a.32.32 0 0 0 0 .58l4.19 1.14a.34.34 0 0 1 .22.22l1.14 4.19a.31.31 0 0 0 .3.23.32.32 0 0 0 .3-.23zm9.51 10.12a1.88 1.88 0 0 1 1.34-1.34l1.82-.5a.32.32 0 0 0 0-.62l-1.82-.5a1.9 1.9 0 0 1-1.34-1.34l-.5-1.82a.32.32 0 0 0-.62 0l-.5 1.82a1.9 1.9 0 0 1-1.34 1.34l-1.82.5a.32.32 0 0 0 0 .62l1.82.5a1.9 1.9 0 0 1 1.34 1.34l.5 1.82a.32.32 0 0 0 .62 0z" fill="#fff48c" stroke="#191816" stroke-linecap="round" stroke-linejoin="round"/><path d="M30.2 42.32a5.06 5.06 0 0 0-3.62 1.54 6.34 6.34 0 0 0-12.12 1 3.8 3.8 0 0 0 .54 7.62h15.2a5.08 5.08 0 0 0 0-10.16z" fill="#e8f4fa"/><path d="M35.19 46.46A5.1 5.1 0 0 0 31 42.38a5 5 0 0 0-4.42 1.48 6.34 6.34 0 0 0-12.12 1 3.79 3.79 0 0 0-2 6.62 3.6 3.6 0 0 1 2.8-3.44C15.76 45.17 18 43 20.67 43a5.6 5.6 0 0 1 5.13 4c.8-.94 3.14-1.52 4.38-1.52a4.7 4.7 0 0 1 4.39 4.45 5.1 5.1 0 0 0 .62-3.47z" fill="#fff"/><path d="M30.2 42.32a5.06 5.06 0 0 0-3.62 1.54 6.34 6.34 0 0 0-12.12 1 3.8 3.8 0 0 0 .54 7.62h15.2a5.08 5.08 0 0 0 0-10.16z" fill="none" stroke="#191816" stroke-linecap="round" stroke-linejoin="round"/></svg>