<svg xmlns="http://www.w3.org/2000/svg" xmlns:xlink="http://www.w3.org/1999/xlink" width="65" height="65"><defs><path id="a" d="M61.478 45.476a32.099 32.099 0 0 1-58.476 0 32.099 32.099 0 1 1 61.341-13.24 31.914 31.914 0 0 1-2.865 13.24z"/></defs><g fill="none" fill-rule="evenodd"><mask id="b" fill="#fff"><use xlink:href="#a"/></mask><use fill="#E3F2FF" fill-rule="nonzero" xlink:href="#a"/><g mask="url(#b)"><g transform="translate(-7.593 18.198)"><circle cx="13.3" cy="13.65" r="8.82" fill="#FFE500" fill-rule="nonzero"/><path fill="#FFF48C" fill-rule="nonzero" d="M13.3 8a8.82 8.82 0 0 1 8.7 7.23 9.1 9.1 0 0 0 .15-1.58 8.82 8.82 0 1 0-17.64 0 9.1 9.1 0 0 0 .15 1.58A8.82 8.82 0 0 1 13.3 8z"/><circle cx="13.3" cy="13.65" r="8.82" stroke="#191816" stroke-linecap="round" stroke-linejoin="round"/><path stroke="#191816" stroke-linecap="round" stroke-linejoin="round" d="M13.3 2.31V.42m8.65 5.21l1.33-1.33m1.99 9.35h1.89m-5.21 8.02l1.33 1.34m-9.98 1.98v1.89"/></g><path fill="#E8F4FA" fill-rule="nonzero" d="M50.986 39.237a4.63 4.63 0 0 0 .147-1.126c0-2.621-2.135-4.746-4.77-4.746-1.04 0-2.05.345-2.87.98a9.537 9.537 0 0 0-10.578-2.823 9.46 9.46 0 0 0-6.23 8.962v.06a4.672 4.672 0 0 0-.596-.06c-2.468.21-4.365 2.264-4.365 4.729 0 2.465 1.897 4.52 4.365 4.729h21.467a5.943 5.943 0 0 0 5.715-4.115 5.9 5.9 0 0 0-2.259-6.65l-.026.06z"/><path fill="#FFF" fill-rule="nonzero" d="M51.298 48.687a5.895 5.895 0 0 0 2.226-4.807 5.899 5.899 0 0 0-2.538-4.651 4.63 4.63 0 0 0 .147-1.118c0-2.621-2.135-4.746-4.77-4.746-1.04 0-2.05.345-2.87.98a9.537 9.537 0 0 0-10.578-2.823 9.46 9.46 0 0 0-6.23 8.962v.06a4.672 4.672 0 0 0-.596-.06 4.776 4.776 0 0 0-4.547 3.34 4.742 4.742 0 0 0 1.833 5.318 4.7 4.7 0 0 1 .62-4.275 4.752 4.752 0 0 1 3.857-1.984c.2.007.399.027.596.06v-.06c0-8.598 10.319-11.951 14.311-5.933 3.457-2.64 7.337.791 6.413 4.66a5.924 5.924 0 0 1 2.1 7.077h.026z"/><path stroke="#191816" stroke-linecap="round" stroke-linejoin="round" stroke-width="1.077" d="M50.986 39.237a4.63 4.63 0 0 0 .147-1.126c0-2.621-2.135-4.746-4.77-4.746-1.04 0-2.05.345-2.87.98a9.537 9.537 0 0 0-10.578-2.823 9.46 9.46 0 0 0-6.23 8.962v.06a4.672 4.672 0 0 0-.596-.06c-2.468.21-4.365 2.264-4.365 4.729 0 2.465 1.897 4.52 4.365 4.729h21.467a5.943 5.943 0 0 0 5.715-4.115 5.9 5.9 0 0 0-2.259-6.65l-.026.06z"/></g></g></svg>