<svg xmlns="http://www.w3.org/2000/svg" xmlns:xlink="http://www.w3.org/1999/xlink" width="65" height="65"><defs><path id="a" d="M61.478 45.476a32.099 32.099 0 0 1-58.476 0 32.099 32.099 0 1 1 61.341-13.24 31.914 31.914 0 0 1-2.865 13.24z"/></defs><g fill="none" fill-rule="evenodd"><mask id="b" fill="#fff"><use xlink:href="#a"/></mask><use fill="#E3F2FF" fill-rule="nonzero" xlink:href="#a"/><g mask="url(#b)"><g transform="translate(18.568 18.16)"><circle cx="13.3" cy="13.65" r="8.82" fill="#FFE500" fill-rule="nonzero"/><path fill="#FFF48C" fill-rule="nonzero" d="M13.3 8a8.82 8.82 0 0 1 8.7 7.23 9.1 9.1 0 0 0 .15-1.58 8.82 8.82 0 1 0-17.64 0 9.1 9.1 0 0 0 .15 1.58A8.82 8.82 0 0 1 13.3 8z"/><circle cx="13.3" cy="13.65" r="8.82" stroke="#191816" stroke-linecap="round" stroke-linejoin="round"/><path stroke="#191816" stroke-linecap="round" stroke-linejoin="round" d="M13.3 2.31V.42M5.28 5.63L3.94 4.3m-1.98 9.35H.07m5.21 8.02l-1.34 1.34M21.95 5.63l1.33-1.33m1.99 9.35h1.89m-5.21 8.02l1.33 1.34m-9.98 1.98v1.89"/></g></g></g></svg>