<svg xmlns="http://www.w3.org/2000/svg" width="42" height="58" viewBox="0 0 42 58">
    <g fill="none" fill-opacity="0" fill-rule="nonzero" stroke="#C1C1C1">
        <path d="M20.922 26.726c6.076 0 11.002-5.983 11.002-13.363S30.306 0 20.922 0 9.92 5.983 9.92 13.363s4.926 13.363 11.002 13.363zM41.678 49.59c-.204-12.857-1.883-16.52-14.732-18.839 0 0-1.809 2.305-6.024 2.305-4.216 0-6.025-2.305-6.025-2.305C2.19 33.045.407 36.654.173 49.172c-.019 1.022-.03 1.591-.03 2.308 0 0 3.06 6.167 20.779 6.167S41.7 51.48 41.7 51.48c0-.46-.01-1.068-.022-1.89z"/>
    </g>
</svg>
