<svg xmlns="http://www.w3.org/2000/svg" width="24" height="24" viewBox="0 0 24 24">
    <path fill="#FFF" fill-rule="nonzero" stroke="#FFF" d="M18.864 7.75c0-3.65-3.08-6.618-6.864-6.618-3.785 0-6.864 2.969-6.864 6.619 0 3.523 2.87 6.411 6.475 6.606v3.886H7.914a.382.382 0 0 0-.389.375c0 .207.175.375.39.375h3.696v3.5c0 .207.174.375.389.375a.382.382 0 0 0 .389-.375v-3.5h3.697a.382.382 0 0 0 .389-.375.382.382 0 0 0-.39-.375H12.39v-3.885c3.604-.196 6.475-3.084 6.475-6.608zm-12.95 0c0-3.236 2.73-5.868 6.086-5.868 3.356 0 6.086 2.632 6.086 5.869 0 3.235-2.73 5.868-6.086 5.868-3.356 0-6.086-2.633-6.086-5.869z"/>
</svg>
