<svg xmlns="http://www.w3.org/2000/svg" width="24" height="24" viewBox="0 0 24 24">
    <path fill="#C1C1C1" fill-rule="nonzero" stroke="#C1C1C1" d="M21.751 2.45l-.001-.005a.358.358 0 0 0-.195-.194l-.005-.002a.36.36 0 0 0-.13-.025h-6.452a.357.357 0 0 0 0 .714h5.59l-6.309 6.308a7.144 7.144 0 0 0-4.83-1.861c-1.922 0-3.729.748-5.088 2.107a7.15 7.15 0 0 0-2.108 5.089 7.15 7.15 0 0 0 2.108 5.088 7.149 7.149 0 0 0 5.089 2.108c1.922 0 3.729-.749 5.088-2.108a7.15 7.15 0 0 0 2.108-5.088 7.145 7.145 0 0 0-1.861-4.83l6.307-6.308v5.59a.357.357 0 0 0 .715 0V2.58c0-.045-.01-.089-.026-.13zm-7.748 16.714a6.44 6.44 0 0 1-4.583 1.898 6.44 6.44 0 0 1-4.584-1.898 6.44 6.44 0 0 1-1.898-4.583 6.44 6.44 0 0 1 1.898-4.584A6.44 6.44 0 0 1 9.42 8.1a6.44 6.44 0 0 1 4.583 1.898 6.44 6.44 0 0 1 1.898 4.584 6.44 6.44 0 0 1-1.898 4.583z"/>
</svg>
